<?xml version="1.0"?>
<svg width="464.05" height="970.73" xmlns="http://www.w3.org/2000/svg" xmlns:svg="http://www.w3.org/2000/svg" xmlns:xlink="http://www.w3.org/1999/xlink" version="1.0">
 <defs id="defs1108">
  <linearGradient id="linearGradient1257">
   <stop id="stop1258" offset="0" stop-color="#ff0a31"/>
   <stop id="stop1259" offset="1" stop-color="#c60200"/>
  </linearGradient>
  <linearGradient id="linearGradient1253">
   <stop id="stop1254" offset="0" stop-color="#6b5635"/>
   <stop id="stop1255" offset="1" stop-color="#fff"/>
  </linearGradient>
  <radialGradient cx="209.53" cy="106.33" fx="208.68" fy="107.57" gradientTransform="matrix(.98293 0 0 1.0174 -141.49 -36.096)" gradientUnits="userSpaceOnUse" id="radialGradient2569" r="88.78" xlink:href="#linearGradient1253"/>
  <radialGradient cx="537.79" cy="113.83" fx="538.56" fy="113.43" gradientTransform="matrix(1.0195 0 0 .98091 -141.49 -36.096)" gradientUnits="userSpaceOnUse" id="radialGradient2572" r="110.57" xlink:href="#linearGradient1253"/>
  <linearGradient id="linearGradient2575" x1="-0.02" x2="1.02" xlink:href="#linearGradient1257" y1="0.5" y2="0.5"/>
  <linearGradient id="linearGradient2578" x1="-0.02" x2="1.02" xlink:href="#linearGradient1257" y1="0.5" y2="0.5"/>
  <radialGradient cx="565.16" cy="346.26" gradientTransform="matrix(.66292 0 0 1.5085 -141.49 -36.096)" gradientUnits="userSpaceOnUse" id="radialGradient2584" r="420.99" xlink:href="#linearGradient1257"/>
 </defs>
 <metadata>image/svg+xmlOpenclipart</metadata>
 <g class="layer">
  <title>Layer 1</title>
  <path d="m231.35,2.09c175.61,6.16 228.86,30.31 209.41,288.39c-3.05,7.13 -6.11,14.26 -9.16,21.38c3.6,119.1 7.2,238.92 0,357.29c11.69,12.77 6.11,29.86 9.16,44.79c5,38.45 7.12,92.73 2.04,145.57c-8.5,118.7 -132.17,107.84 -202.57,109.93c-78.45,-1.75 -184.26,23.84 -213.76,-108.92c-2.88,-61.2 -3.6,-110.16 0,-177.12c2.71,-5.09 5.42,-10.17 8.14,-15.26c-3.28,-117.65 -7.28,-233.14 -1.2,-357.26c-3.59,-9.84 -7.19,-19.68 -10.79,-29.51c-13.2,-254.33 36.95,-270.4 208.73,-279.28z" fill="url(#radialGradient2584)" fill-rule="evenodd" id="path1228" stroke="#000" stroke-width="0.75" transform="translate(-23 -112) matrix(1 0 0 1 23 118)">9</path>
  <path d="m431.6,98.1c-37.32,-74.31 -122.49,-83.47 -203.59,-85.51c-86.18,3.73 -154.04,5.43 -197.47,96.7c11.87,-34.61 0.34,-104.84 198.49,-108.92c179.84,3.4 190.69,51.58 202.57,97.73z" fill="#bf0000" fill-rule="evenodd" id="path1234" stroke="#000" stroke-width="0.75"/>
  <path d="m62.09,234.5c80.42,-91.28 260.59,-99.08 338.97,1.02c-5.43,47.5 -10.86,95 -16.28,142.51c-73.97,-16.63 -190.7,-34.27 -304.36,5.09c-6.11,-49.54 -12.22,-99.08 -18.33,-148.62z" fill-opacity="0.83" fill-rule="evenodd" id="path1229" stroke="#000" stroke-width="1pt" transform="matrix(1 0 0 1 0 0)"/>
  <path d="m93.65,706.82c99.08,10.52 191.03,16.96 278.91,-5.09l0,145.56c-87.2,58.02 -192.73,54.97 -276.88,3.05c-0.68,-47.84 -1.35,-95.68 -2.03,-143.52z" fill-opacity="0.83" fill-rule="evenodd" id="path1230" stroke="#000" stroke-width="1pt"/>
  <path d="m440.25,292.01c23.24,10.69 27.15,35.63 19.85,41.23c-8.14,-0.85 -20.36,-12.39 -28.5,-14.25c-0.17,-2.38 -0.34,-4.75 -0.51,-7.13c3.39,-6.45 5.77,-13.4 9.16,-19.85z" fill="url(#linearGradient2578)" fill-opacity="0.75" fill-rule="evenodd" id="path1232" stroke="#000" stroke-width="1pt"/>
  <path d="m25.21,289.54c-23.69,9.66 -28.69,34.4 -21.64,40.31c8.17,-0.49 20.88,-11.47 29.1,-12.98c0.27,-2.37 0.55,-4.73 0.82,-7.1c-3.11,-6.59 -5.17,-13.64 -8.28,-20.23z" fill="url(#linearGradient2575)" fill-opacity="0.75" fill-rule="evenodd" id="path1233" stroke="#000" stroke-width="1pt"/>
  <path d="m381.72,45.16c-24.94,6.11 -20.87,19.34 3.06,39.7c19.51,14.08 31.38,16.46 32.57,-5.09c-1.7,-12.55 -30.37,-33.25 -35.63,-34.61z" fill="url(#radialGradient2572)" fill-opacity="0.75" fill-rule="evenodd" id="path1235"/>
  <path d="m83.15,44.17c25.35,4.08 22.36,17.6 0.16,39.82c-18.31,15.61 -29.96,18.93 -32.88,-2.45c0.68,-12.65 27.59,-35.59 32.72,-37.37z" fill="url(#radialGradient2569)" fill-opacity="0.75" fill-rule="evenodd" id="path1236" stroke="#000" stroke-width="1pt"/>
  <path d="m49.88,270.13c-9.16,147.26 -7.13,283.32 -2.04,425.49c4.07,25.11 7.13,51.24 11.2,76.34c12.38,-61.92 20.19,-192.55 14.25,-315.55c-5.26,-66.17 -13.57,-123.68 -23.41,-186.28z" fill-opacity="0.83" fill-rule="evenodd" id="path1237" stroke="#000" stroke-width="1pt"/>
  <path d="m417.24,258.62c9.16,147.26 7.13,283.32 2.04,425.49c-4.08,25.11 -7.13,51.24 -11.2,76.35c-12.39,-61.93 -20.19,-192.56 -14.25,-315.56c5.26,-66.16 13.57,-123.68 23.41,-186.28z" fill-opacity="0.83" fill-rule="evenodd" id="path1238" stroke="#000" stroke-width="1pt"/>
  <path d="m193.21,897.5l82.77,-0.72l-2.16,8.64l-76.3,0.72l-4.31,-8.64z" fill-opacity="0.58" fill-rule="evenodd" id="path1239" stroke="#000" stroke-width="1pt"/>
  <path d="m395.16,965.63a16.91,9 0 1 1 -33.83,0a16.91,9 0 1 1 33.83,0z" fill="#29007d" fill-rule="evenodd" id="path1241" stroke="#000" stroke-width="1pt" transform="translate(-142.93 -44.013)"/>
  <path d="m354.44,918.38c5.52,-10.08 49.18,-28.08 57.58,-21.6c6,18 -25.43,36.71 -38.15,41.03c-10.8,0 -20.15,-8.64 -19.43,-19.43z" fill="#f00" fill-opacity="0.72" fill-rule="evenodd" id="path1242" stroke="#000" stroke-width="1pt"/>
  <path d="m118,920.24c-5.52,-10.08 -49.18,-28.07 -57.58,-21.59c-6,17.99 25.43,36.71 38.15,41.02c10.79,0 20.15,-8.63 19.43,-19.43z" fill="#f00" fill-opacity="0.72" fill-rule="evenodd" id="path1243" stroke="#000" stroke-width="1pt"/>
  <path d="m382.51,380.7c-11.52,107.97 -12.24,214.49 -10.8,316.7" fill="none" id="path1244" stroke="#000" stroke-opacity="0.65" stroke-width="3.5"/>
  <path d="m80.92,384.3c9.84,117.8 13.2,217.61 13.68,318.86" fill="none" id="path1245" stroke="#000" stroke-opacity="0.66" stroke-width="2.75"/>
  <path d="m222.3,686.63c-0.46,-1.01 0.24,2.22 0.44,3.31c0.4,2.18 0.89,4.33 1.44,6.47c1.64,6.36 3.81,12.52 6.14,18.64c0.57,1.44 1.15,2.88 1.73,4.31l-0.83,0.16c-0.6,-1.44 -1.2,-2.87 -1.79,-4.3c-3.68,-9.03 -8.73,-18.93 -10.62,-28.59l3.49,0z" fill-opacity="0.75" id="path1250"/>
  <path d="m169.45,937.09c-0.36,5.64 -2.16,10.56 -4.32,15.84c47.63,2.63 99.21,3.11 148.28,-2.88c-3,-3.84 -4.92,-9.12 -5.76,-15.84c-43.91,4.56 -91.41,4.8 -138.2,2.88z" fill="#e1bd23" fill-rule="evenodd" id="path1251" stroke="#000" stroke-width="1pt"/>
  <path d="m393.72,74.54a18.71,11.16 0 1 1 -37.43,0a18.71,11.16 0 1 1 37.43,0z" fill="#0a007d" fill-rule="evenodd" id="path1271" stroke="#000" stroke-width="0.5" transform="matrix(1 0 0 .86614 -142.6 -33.28)"/>
  <path d="m165.31,-48.45l1.86,0l1.35,11.43l1.6,-7.56l1.99,0l1.62,7.58l1.35,-11.45l1.86,0l-2.11,14.08l-1.8,0l-1.91,-8.36l-1.9,8.36l-1.81,0l-2.1,-14.08z" fill="#fff" id="text1272" transform="scale(1.354 -.73854)"/>
  <path d="m61.58,229.32c6.11,-136.88 64.13,-201.57 169.49,-208.52c130.97,3.92 162.19,87.5 169.99,209.06" fill="none" id="path1276" stroke="#000" stroke-opacity="0.47" stroke-width="2.43"/>
  <path d="m150.49,1269.6l0,0.9l-5.05,0c0,-0.2 0.03,-0.4 0.11,-0.7c0.13,-0.3 0.34,-0.6 0.62,-1c0.28,-0.3 0.69,-0.7 1.23,-1.1c0.83,-0.7 1.39,-1.2 1.68,-1.6s0.43,-0.8 0.43,-1.2c0,-0.3 -0.13,-0.7 -0.39,-0.9c-0.27,-0.3 -0.62,-0.4 -1.04,-0.4c-0.45,0 -0.81,0.1 -1.08,0.4c-0.28,0.3 -0.41,0.7 -0.42,1.1l-0.96,-0.1c0.07,-0.7 0.32,-1.2 0.75,-1.6s1,-0.6 1.73,-0.6s1.31,0.2 1.74,0.6c0.42,0.5 0.64,1 0.64,1.6c0,0.3 -0.07,0.6 -0.19,0.9c-0.13,0.3 -0.33,0.6 -0.62,0.9s-0.77,0.8 -1.45,1.3c-0.56,0.5 -0.92,0.8 -1.08,1s-0.29,0.3 -0.39,0.5l3.74,0zm1.15,-0.9l0.9,-0.1c0.07,0.5 0.22,0.8 0.44,1c0.21,0.2 0.49,0.3 0.82,0.3c0.29,0 0.54,-0.1 0.76,-0.2c0.22,-0.2 0.39,-0.3 0.53,-0.6c0.14,-0.2 0.26,-0.5 0.35,-0.9c0.1,-0.3 0.14,-0.7 0.14,-1.1l0,-0.2c-0.19,0.3 -0.45,0.5 -0.77,0.7s-0.68,0.3 -1.05,0.3c-0.64,0 -1.17,-0.2 -1.61,-0.7c-0.43,-0.4 -0.65,-1 -0.65,-1.8s0.23,-1.4 0.68,-1.9c0.46,-0.4 1.03,-0.7 1.72,-0.7c0.49,0 0.95,0.2 1.36,0.4c0.41,0.3 0.72,0.7 0.93,1.2c0.22,0.5 0.32,1.2 0.32,2.1c0,1 -0.1,1.8 -0.31,2.4c-0.22,0.5 -0.53,1 -0.95,1.3s-0.91,0.4 -1.47,0.4c-0.6,0 -1.08,-0.1 -1.46,-0.5c-0.38,-0.3 -0.61,-0.8 -0.68,-1.4zm3.83,-3.3c0,-0.6 -0.14,-1 -0.43,-1.3c-0.28,-0.3 -0.63,-0.5 -1.03,-0.5c-0.42,0 -0.78,0.2 -1.09,0.5c-0.31,0.4 -0.46,0.8 -0.46,1.3s0.15,0.9 0.44,1.2s0.65,0.5 1.08,0.5c0.44,0 0.79,-0.2 1.07,-0.5s0.42,-0.7 0.42,-1.2zm1.97,3.1l0.93,-0.1c0.11,0.5 0.29,0.9 0.55,1.1s0.57,0.4 0.95,0.4c0.44,0 0.81,-0.2 1.11,-0.5c0.31,-0.3 0.46,-0.7 0.46,-1.1c0,-0.5 -0.14,-0.8 -0.42,-1.1c-0.29,-0.3 -0.64,-0.4 -1.08,-0.4c-0.17,0 -0.39,0 -0.66,0.1l0.11,-0.8l0.15,0c0.4,0 0.76,-0.1 1.07,-0.3c0.32,-0.2 0.48,-0.6 0.48,-1c0,-0.3 -0.11,-0.6 -0.35,-0.9c-0.23,-0.2 -0.53,-0.3 -0.9,-0.3c-0.36,0 -0.66,0.1 -0.91,0.4c-0.24,0.2 -0.4,0.5 -0.46,1l-0.94,-0.2c0.11,-0.6 0.37,-1.1 0.78,-1.4c0.41,-0.4 0.91,-0.6 1.51,-0.6c0.42,0 0.8,0.1 1.15,0.3s0.62,0.4 0.81,0.7c0.18,0.3 0.28,0.7 0.28,1s-0.09,0.6 -0.27,0.9s-0.44,0.5 -0.78,0.7c0.45,0.1 0.8,0.3 1.05,0.6s0.37,0.8 0.37,1.2c0,0.7 -0.24,1.3 -0.73,1.7c-0.48,0.5 -1.1,0.7 -1.84,0.7c-0.67,0 -1.23,-0.2 -1.67,-0.6s-0.69,-0.9 -0.75,-1.5zm6.06,0.2l0.9,-0.1c0.08,0.5 0.23,0.8 0.44,1c0.22,0.2 0.49,0.3 0.83,0.3c0.29,0 0.54,-0.1 0.76,-0.2c0.21,-0.2 0.39,-0.3 0.53,-0.6c0.14,-0.2 0.25,-0.5 0.35,-0.9c0.09,-0.3 0.14,-0.7 0.14,-1.1c0,0 0,-0.1 -0.01,-0.2c-0.18,0.3 -0.44,0.5 -0.76,0.7c-0.33,0.2 -0.68,0.3 -1.06,0.3c-0.63,0 -1.16,-0.2 -1.6,-0.7c-0.44,-0.4 -0.66,-1 -0.66,-1.8s0.23,-1.4 0.69,-1.9c0.45,-0.4 1.02,-0.7 1.71,-0.7c0.5,0 0.95,0.2 1.36,0.4c0.41,0.3 0.73,0.7 0.94,1.2s0.32,1.2 0.32,2.1c0,1 -0.11,1.8 -0.32,2.4c-0.21,0.5 -0.52,1 -0.94,1.3s-0.91,0.4 -1.47,0.4c-0.6,0 -1.09,-0.1 -1.46,-0.5c-0.38,-0.3 -0.61,-0.8 -0.69,-1.4zm3.84,-3.3c0,-0.6 -0.14,-1 -0.43,-1.3s-0.63,-0.5 -1.03,-0.5c-0.42,0 -0.78,0.2 -1.09,0.5c-0.31,0.4 -0.46,0.8 -0.46,1.3s0.14,0.9 0.44,1.2c0.29,0.3 0.65,0.5 1.08,0.5s0.79,-0.2 1.07,-0.5s0.42,-0.7 0.42,-1.2zm1.96,3.1l0.94,-0.1c0.11,0.5 0.29,0.9 0.55,1.1s0.57,0.4 0.94,0.4c0.44,0 0.81,-0.2 1.12,-0.5c0.3,-0.3 0.45,-0.7 0.45,-1.1c0,-0.5 -0.14,-0.8 -0.42,-1.1s-0.64,-0.4 -1.07,-0.4c-0.18,0 -0.4,0 -0.66,0.1l0.1,-0.8l0.15,0c0.4,0 0.76,-0.1 1.08,-0.3s0.48,-0.6 0.48,-1c0,-0.3 -0.12,-0.6 -0.35,-0.9c-0.23,-0.2 -0.53,-0.3 -0.9,-0.3c-0.36,0 -0.67,0.1 -0.91,0.4c-0.24,0.2 -0.4,0.5 -0.47,1l-0.94,-0.2c0.12,-0.6 0.38,-1.1 0.79,-1.4c0.4,-0.4 0.91,-0.6 1.51,-0.6c0.42,0 0.8,0.1 1.15,0.3s0.62,0.4 0.8,0.7c0.19,0.3 0.28,0.7 0.28,1s-0.09,0.6 -0.26,0.9c-0.18,0.3 -0.44,0.5 -0.79,0.7c0.45,0.1 0.8,0.3 1.05,0.6s0.38,0.8 0.38,1.2c0,0.7 -0.25,1.3 -0.73,1.7c-0.49,0.5 -1.1,0.7 -1.84,0.7c-0.67,0 -1.23,-0.2 -1.67,-0.6s-0.7,-0.9 -0.76,-1.5zm8.43,2l2.93,-7.6l1.08,0l3.13,7.6l-1.15,0l-0.89,-2.3l-3.19,0l-0.84,2.3l-1.07,0zm2.2,-3.1l2.58,0l-0.79,-2.1c-0.24,-0.7 -0.43,-1.2 -0.54,-1.6c-0.1,0.5 -0.24,0.9 -0.41,1.4l-0.84,2.3zm5.71,3.1l0,-7.6l2.86,0c0.59,0 1.06,0 1.41,0.2s0.63,0.4 0.82,0.7c0.2,0.3 0.3,0.7 0.3,1s-0.08,0.7 -0.26,0.9c-0.18,0.3 -0.45,0.6 -0.8,0.7c0.46,0.2 0.81,0.4 1.06,0.7c0.25,0.4 0.37,0.7 0.37,1.2c0,0.3 -0.07,0.7 -0.22,1s-0.34,0.5 -0.56,0.7s-0.5,0.3 -0.84,0.4c-0.33,0.1 -0.74,0.1 -1.23,0.1l-2.91,0zm1.01,-4.4l1.65,0c0.45,0 0.77,-0.1 0.96,-0.1c0.26,-0.1 0.45,-0.2 0.58,-0.4s0.2,-0.4 0.2,-0.7c0,-0.2 -0.06,-0.4 -0.18,-0.6s-0.3,-0.4 -0.52,-0.4c-0.23,-0.1 -0.62,-0.1 -1.16,-0.1l-1.53,0l0,2.3zm0,3.5l2.59,0c0.23,-0.1 0.43,-0.2 0.58,-0.2c0.16,-0.1 0.29,-0.3 0.39,-0.5s0.15,-0.4 0.15,-0.6c0,-0.3 -0.08,-0.5 -0.22,-0.8c-0.15,-0.2 -0.35,-0.3 -0.61,-0.4s-0.63,-0.1 -1.11,-0.1l-1.77,0l0,2.6zm13.59,-4.9l-0.93,0.1c-0.08,-0.4 -0.2,-0.6 -0.36,-0.8c-0.25,-0.3 -0.56,-0.4 -0.93,-0.4c-0.3,0 -0.56,0.1 -0.79,0.3c-0.29,0.2 -0.53,0.5 -0.7,0.9s-0.25,1 -0.26,1.8c0.22,-0.4 0.5,-0.6 0.83,-0.8c0.32,-0.2 0.66,-0.3 1.02,-0.3c0.63,0 1.16,0.3 1.6,0.7c0.44,0.5 0.66,1.1 0.66,1.8c0,0.5 -0.11,0.9 -0.31,1.4c-0.21,0.4 -0.49,0.7 -0.85,0.9c-0.37,0.2 -0.78,0.3 -1.23,0.3c-0.78,0 -1.42,-0.3 -1.91,-0.8c-0.5,-0.6 -0.74,-1.6 -0.74,-2.9c0,-1.4 0.27,-2.5 0.81,-3.2c0.48,-0.6 1.12,-0.9 1.93,-0.9c0.6,0 1.09,0.2 1.47,0.5c0.38,0.4 0.61,0.8 0.69,1.4zm-3.82,3.3c0,0.3 0.06,0.7 0.2,1c0.14,0.2 0.33,0.5 0.58,0.6c0.24,0.2 0.5,0.3 0.77,0.3c0.4,0 0.74,-0.2 1.02,-0.5c0.29,-0.3 0.43,-0.8 0.43,-1.3s-0.14,-1 -0.42,-1.3s-0.64,-0.4 -1.07,-0.4c-0.42,0 -0.78,0.1 -1.07,0.4c-0.3,0.3 -0.44,0.7 -0.44,1.2zm9.82,1.6l0,0.9l-5.05,0c0,-0.2 0.03,-0.4 0.11,-0.7c0.13,-0.3 0.34,-0.6 0.62,-1c0.28,-0.3 0.69,-0.7 1.22,-1.1c0.83,-0.7 1.39,-1.2 1.69,-1.6c0.29,-0.4 0.43,-0.8 0.43,-1.2c0,-0.3 -0.13,-0.7 -0.4,-0.9c-0.26,-0.3 -0.61,-0.4 -1.03,-0.4c-0.46,0 -0.82,0.1 -1.09,0.4s-0.4,0.7 -0.41,1.1l-0.96,-0.1c0.07,-0.7 0.31,-1.2 0.74,-1.6s1.01,-0.6 1.74,-0.6s1.31,0.2 1.74,0.6c0.42,0.5 0.64,1 0.64,1.6c0,0.3 -0.07,0.6 -0.19,0.9c-0.13,0.3 -0.33,0.6 -0.62,0.9s-0.78,0.8 -1.45,1.3c-0.56,0.5 -0.92,0.8 -1.08,1s-0.29,0.3 -0.4,0.5l3.75,0z" id="text1278" transform="scale(1.3386 .74706)"/>
  <path d="m406.98,762.9c-4.8,112.29 -68.62,181.39 -169.87,172.75c-86.85,2.88 -169.39,-50.38 -178.5,-159.79" fill="none" id="path1281" stroke="#000" stroke-opacity="0.52" stroke-width="1.63"/>
  <path d="m198.22,374.81l43.5,92.46l-17.94,10.9l54.79,79.23l-17.94,13.23l67.74,132.65l-114.88,-101.66l21.91,-14.11l-71.38,-65.12l25.58,-20.12l-75.36,-68.31l83.99,-59.16z" fill="#ffff00" id="svg_5" stroke="#000000" transform="rotate(-9.91986 221.303 539.046)"/>
 </g>
</svg>